<svg preserveAspectRatio="none" overflow="visible" style="display: block;" width="24" height="24" viewBox="0 0 24 24" fill="none" xmlns="http://www.w3.org/2000/svg">
<g>
<path d="M20.4644 10.3265C20.4796 10.3102 20.6062 9.81054 20.7425 9.216C20.8789 8.62145 20.9695 8.12945 20.9444 8.12073C20.6396 8.07068 20.3341 8.02522 20.028 7.98436C19.0658 7.84909 17.9433 7.52291 17.2407 7.17273C15.0524 6.08291 13.6036 4.12909 13.2262 1.75745L13.1313 1.15418H11.1971L11.1055 1.70073C10.5044 5.28654 7.82291 7.62436 3.81164 8.06073C3.54982 8.08909 3.336 8.12291 3.336 8.13709C3.336 8.25709 3.81818 10.2611 3.85636 10.2993C3.88473 10.3265 4.12909 10.3058 4.40182 10.2535C7.41818 9.67418 9.87273 8.01382 10.9004 5.85927L11.1469 5.34327L11.1655 15.9687L11.1775 22.6876H13.1345L13.1465 15.9513L13.1662 5.35091L13.4967 6.00327C14.3542 7.69527 16.0364 9.036 18.2935 9.82473C18.9371 10.0495 20.4022 10.3887 20.4644 10.3265Z" fill="#EBECF3"/>
</g>
</svg>
